<svg width="142" height="17" viewBox="0 0 142 17" fill="none" xmlns="http://www.w3.org/2000/svg">
<path d="M135.205 16.7805C134.377 16.7805 133.56 16.6789 132.755 16.4757C131.957 16.2649 131.227 15.9526 130.565 15.5387C129.902 15.1172 129.353 14.5904 128.917 13.9582C128.488 13.326 128.235 12.5847 128.16 11.7342H132.089C132.187 12.1783 132.375 12.5546 132.653 12.8631C132.932 13.1642 133.285 13.3975 133.714 13.5631C134.151 13.7211 134.64 13.8001 135.182 13.8001C135.709 13.8001 136.198 13.7399 136.65 13.6195C137.101 13.4991 137.462 13.3109 137.733 13.0551C138.012 12.7992 138.151 12.4567 138.151 12.0277C138.151 11.659 138.023 11.3654 137.767 11.1472C137.519 10.9214 137.188 10.7445 136.774 10.6166C136.36 10.4811 135.912 10.3682 135.43 10.2779L132.766 9.7699C131.524 9.55164 130.531 9.05492 129.786 8.27973C129.041 7.50454 128.657 6.45465 128.634 5.13005C128.619 4.06887 128.901 3.15821 129.481 2.39807C130.068 1.63041 130.855 1.04337 131.84 0.636959C132.826 0.230549 133.921 0.0273438 135.126 0.0273438C136.571 0.0273438 137.79 0.245601 138.783 0.682117C139.784 1.11863 140.544 1.72072 141.064 2.48838C141.583 3.24852 141.85 4.11026 141.865 5.07361H138.038C137.986 4.57688 137.835 4.178 137.587 3.87695C137.338 3.57591 137.011 3.36141 136.604 3.23347C136.206 3.098 135.739 3.03026 135.205 3.03026C134.768 3.03026 134.392 3.07542 134.076 3.16573C133.76 3.24852 133.496 3.36518 133.285 3.5157C133.075 3.66622 132.917 3.84309 132.811 4.04629C132.713 4.24197 132.665 4.44894 132.665 4.66719C132.665 5.08866 132.8 5.4311 133.071 5.69451C133.349 5.9504 133.88 6.16113 134.663 6.3267L137.316 6.82343C138.399 7.01911 139.254 7.32015 139.878 7.72656C140.503 8.13297 140.97 8.59206 141.278 9.10384C141.587 9.60809 141.782 10.1161 141.865 10.6279C141.956 11.1397 142.001 11.6063 142.001 12.0277C142.001 12.9233 141.707 13.7324 141.12 14.4549C140.541 15.1774 139.739 15.7456 138.716 16.1596C137.7 16.5735 136.529 16.7805 135.205 16.7805Z" fill="#D0D1D4"/>
<path d="M114.803 16.5527V0.228516H126.442L126.419 3.43464H118.675V6.76495H125.279V9.90334H118.652V13.3127L126.51 13.324V16.5527H114.803Z" fill="#D0D1D4"/>
<path d="M108.289 0.228516H112.127V16.5527H108.661L101.38 6.07631V16.5527H97.5303V0.228516H101.38L108.289 10.1856V0.228516Z" fill="#D0D1D4"/>
<path d="M83.6797 16.5527V0.228516H95.3188L95.2962 3.43464H87.5519V6.76495H94.156V9.90334H87.5293V13.3127L95.3866 13.324V16.5527H83.6797Z" fill="#D0D1D4"/>
<path d="M74.7984 0C76.0627 0 77.1879 0.252125 78.1738 0.756375C79.1673 1.2531 79.9688 1.94174 80.5784 2.82229C81.188 3.69532 81.553 4.69253 81.6735 5.81392H77.6432C77.5529 5.27204 77.3798 4.80166 77.1239 4.40278C76.8756 3.99637 76.5444 3.68027 76.1305 3.45449C75.7241 3.2287 75.2386 3.11581 74.6742 3.11581C74.0194 3.11581 73.4474 3.28139 72.9582 3.61254C72.469 3.93616 72.089 4.47804 71.818 5.23818C71.5546 5.99079 71.4229 6.99929 71.4229 8.26367C71.4229 10.1904 71.7164 11.5714 72.3035 12.4068C72.898 13.2422 73.6883 13.6599 74.6742 13.6599C75.2386 13.6599 75.7241 13.5244 76.1305 13.2535C76.5444 12.9825 76.8756 12.6213 77.1239 12.1697C77.3798 11.7106 77.5529 11.2139 77.6432 10.6796H81.6735C81.5681 11.4849 81.3762 12.2563 81.0977 12.9938C80.8268 13.7239 80.4317 14.3749 79.9124 14.9469C79.3931 15.5189 78.7157 15.9667 77.8803 16.2903C77.0524 16.6139 76.0251 16.7757 74.7984 16.7757C73.248 16.7757 71.9046 16.4145 70.7681 15.692C69.6317 14.9619 68.7511 13.9534 68.1265 12.6665C67.5018 11.3795 67.1895 9.89308 67.1895 8.20723C67.1895 6.52891 67.498 5.07636 68.1152 3.84961C68.7323 2.62285 69.6091 1.67456 70.7455 1.00474C71.8895 0.334912 73.2405 0 74.7984 0Z" fill="#D0D1D4"/>
<path d="M59.1255 16.7805C58.2976 16.7805 57.481 16.6789 56.6757 16.4757C55.878 16.2649 55.1479 15.9526 54.4856 15.5387C53.8234 15.1172 53.2739 14.5904 52.8374 13.9582C52.4084 13.326 52.1563 12.5847 52.0811 11.7342H56.0097C56.1075 12.1783 56.2957 12.5546 56.5741 12.8631C56.8526 13.1642 57.2063 13.3975 57.6353 13.5631C58.0718 13.7211 58.561 13.8001 59.1029 13.8001C59.6297 13.8001 60.1189 13.7399 60.5705 13.6195C61.0221 13.4991 61.3833 13.3109 61.6543 13.0551C61.9327 12.7992 62.072 12.4567 62.072 12.0277C62.072 11.659 61.944 11.3654 61.6881 11.1472C61.4398 10.9214 61.1086 10.7445 60.6947 10.6166C60.2808 10.4811 59.833 10.3682 59.3513 10.2779L56.687 9.7699C55.4452 9.55164 54.4518 9.05492 53.7067 8.27973C52.9616 7.50454 52.5778 6.45465 52.5552 5.13005C52.5401 4.06887 52.8224 3.15821 53.4019 2.39807C53.9889 1.63041 54.7754 1.04337 55.7613 0.636959C56.7472 0.230549 57.8423 0.0273438 59.0465 0.0273438C60.4915 0.0273438 61.7107 0.245601 62.7042 0.682117C63.7051 1.11863 64.4653 1.72072 64.9846 2.48838C65.5039 3.24852 65.7711 4.11026 65.7861 5.07361H61.9591C61.9064 4.57688 61.7559 4.178 61.5075 3.87695C61.2592 3.57591 60.9318 3.36141 60.5254 3.23347C60.1265 3.098 59.6599 3.03026 59.1255 3.03026C58.689 3.03026 58.3127 3.07542 57.9966 3.16573C57.6805 3.24852 57.4171 3.36518 57.2063 3.5157C56.9956 3.66622 56.8376 3.84309 56.7322 4.04629C56.6344 4.24197 56.5854 4.44894 56.5854 4.66719C56.5854 5.08866 56.7209 5.4311 56.9918 5.69451C57.2703 5.9504 57.8009 6.16113 58.5836 6.3267L61.2366 6.82343C62.3203 7.01911 63.1745 7.32015 63.7992 7.72656C64.4239 8.13297 64.8905 8.59206 65.1991 9.10384C65.5076 9.60809 65.7033 10.1161 65.7861 10.6279C65.8764 11.1397 65.9216 11.6063 65.9216 12.0277C65.9216 12.9233 65.6281 13.7324 65.041 14.4549C64.4615 15.1774 63.66 15.7456 62.6364 16.1596C61.6204 16.5735 60.4501 16.7805 59.1255 16.7805Z" fill="#D0D1D4"/>
<path d="M34.7256 0.2283C34.831 0.2283 35.0981 0.2283 35.5271 0.2283C35.9636 0.2283 36.4679 0.2283 37.0399 0.2283C37.6194 0.220775 38.1876 0.220775 38.7445 0.2283C39.3015 0.2283 39.7568 0.235826 40.1105 0.250878C42.0824 0.311087 43.6892 0.68363 44.931 1.36851C46.1803 2.04586 47.0948 2.9791 47.6743 4.16822C48.2613 5.34982 48.5548 6.73463 48.5548 8.32264C48.5548 9.96333 48.2463 11.4008 47.6291 12.6351C47.0195 13.8694 46.0863 14.8327 44.8294 15.5251C43.5725 16.21 41.9732 16.5524 40.0315 16.5524H34.7256V0.2283ZM38.5865 3.28767V13.4931H40.1444C40.8895 13.4931 41.5969 13.3237 42.2668 12.9851C42.9366 12.6464 43.4822 12.097 43.9037 11.3368C44.3327 10.5767 44.5472 9.55692 44.5472 8.27748C44.5472 7.14104 44.3665 6.20404 44.0053 5.46648C43.644 4.72892 43.136 4.18327 42.4812 3.82955C41.8265 3.46829 41.055 3.28767 40.167 3.28767H38.5865Z" fill="#D0D1D4"/>
<path d="M18.8691 0.2283C18.9745 0.2283 19.2417 0.2283 19.6707 0.2283C20.1072 0.2283 20.6114 0.2283 21.1834 0.2283C21.7629 0.220775 22.3312 0.220775 22.8881 0.2283C23.445 0.2283 23.9003 0.235826 24.2541 0.250878C26.2259 0.311087 27.8327 0.68363 29.0746 1.36851C30.3239 2.04586 31.2383 2.9791 31.8178 4.16822C32.4049 5.34982 32.6984 6.73463 32.6984 8.32264C32.6984 9.96333 32.3898 11.4008 31.7727 12.6351C31.163 13.8694 30.2298 14.8327 28.973 15.5251C27.7161 16.21 26.1168 16.5524 24.1751 16.5524H18.8691V0.2283ZM22.73 3.28767V13.4931H24.2879C25.033 13.4931 25.7405 13.3237 26.4103 12.9851C27.0801 12.6464 27.6258 12.097 28.0472 11.3368C28.4762 10.5767 28.6907 9.55692 28.6907 8.27748C28.6907 7.14104 28.5101 6.20404 28.1488 5.46648C27.7876 4.72892 27.2796 4.18327 26.6248 3.82955C25.97 3.46829 25.1986 3.28767 24.3105 3.28767H22.73Z" fill="#D0D1D4"/>
<path d="M8.27301 12.1746C10.3993 12.1746 12.123 10.4648 12.123 8.3558C12.123 6.24677 10.3993 4.53711 8.27301 4.53711C6.14672 4.53711 4.42285 6.24677 4.42285 8.3558C4.42285 10.4648 6.14672 12.1746 8.27301 12.1746Z" fill="#FF216D"/>
<path fill-rule="evenodd" clip-rule="evenodd" d="M10.8781 0.660156C14.066 1.77576 16.3547 4.81168 16.3547 8.37795C16.3547 12.8894 12.6921 16.5521 8.18062 16.5521C7.86558 16.5521 7.59034 16.5487 7.28551 16.514C15.082 11.9876 12.9574 7.79406 11.4954 7.53951C9.20622 7.14093 6.78932 9.23424 5.73737 7.49276C4.66141 5.71152 9.44122 1.79645 10.8781 0.660156Z" fill="#1B2BFA"/>
<path fill-rule="evenodd" clip-rule="evenodd" d="M7.20387 16.4904C3.14882 16.0097 0 12.5563 0 8.37336C0 3.86191 3.66269 0.199219 8.17412 0.199219C9.08306 0.199219 9.95795 0.347928 10.7749 0.622315C9.25688 1.45323 2.5499 4.62519 3.06426 8.37336C3.48895 10.729 5.52047 11.4705 8.96386 10.5873C9.63312 10.4156 12.9913 10.0915 7.20387 16.4904Z" fill="#D0D1D4"/>
</svg>
